<?xml version="1.0" standalone="no"?><!DOCTYPE svg PUBLIC "-//W3C//DTD SVG 1.1//EN" "http://www.w3.org/Graphics/SVG/1.1/DTD/svg11.dtd"><svg t="1574846899417" class="icon" viewBox="0 0 1024 1024" version="1.1" xmlns="http://www.w3.org/2000/svg" p-id="1100" xmlns:xlink="http://www.w3.org/1999/xlink" width="200" height="200"><defs><style type="text/css"></style></defs><path d="M899.906 477.184a86.86 86.86 0 0 0-10.76-59.878 17.348 17.348 0 0 1 4.93-24.038 17.43 17.43 0 0 1 10.17-2.864h100.838V112.71c0-57.518-46.618-104.136-104.136-104.136H624.814v101.012c0.07 9.58 7.898 17.304 17.478 17.234a17.24 17.24 0 0 0 8.21-2.134 85.336 85.336 0 0 1 61.092-10.76c47.156 8.522 78.484 53.664 69.962 100.838-8.522 47.156-53.664 78.484-100.838 69.962a86.67 86.67 0 0 1-27.96-10.258c-8.296-4.808-18.918-1.978-23.708 6.318a17.418 17.418 0 0 0-2.326 9.476l-1.91 100.144h98.582c9.564-0.52 17.756 6.804 18.276 16.384a17.384 17.384 0 0 1-2.308 9.65 85.452 85.452 0 0 0-11.628 43.39c0 47.92 38.86 86.78 86.796 86.762 41.95 0 77.894-30.026 85.374-71.316v1.908z" fill="#88B337" p-id="1101"></path><path d="M468.61 147.422c-5.902-35.614-33.81-63.522-69.424-69.424 35.614-5.902 63.522-33.81 69.424-69.424 5.902 35.614 33.81 63.522 69.424 69.424-35.614 5.9-63.522 33.808-69.424 69.424z" fill="#FDB62F" p-id="1102"></path><path d="M815.728 737.524v-34.712c47.92 0 86.78-38.86 86.78-86.78h34.712c0 67.098-54.394 121.492-121.492 121.492z" fill="#D9D9D9" p-id="1103"></path><path d="M815.728 824.302v-34.712c95.856 0 173.56-77.702 173.56-173.56H1024c0 115.036-93.254 208.272-208.272 208.272z" fill="#D9D9D9" p-id="1104"></path><path d="M105.698 1015.218h276.132H93.548c4.044 0.278 8.106 0.278 12.15 0zM381.83 737.524a19.882 19.882 0 0 0 0-6.422v2.082c0.174 1.44 0.174 2.898 0 4.34z" fill="#FFA83D" p-id="1105"></path><path d="M536.818 423.728a82.436 82.436 0 0 0-5.38-15.968 86.8 86.8 0 0 0-62.828-50.506 85.408 85.408 0 0 0-59.878 10.76 17.348 17.348 0 0 1-24.038-4.93 17.43 17.43 0 0 1-2.864-10.17v-101.358H104.136C46.618 251.556 0 298.174 0 355.692V633.388h107.78a18.61 18.61 0 0 0 6.422-3.818l1.042-1.042a19.794 19.794 0 0 0 0-21.348 77.132 77.132 0 0 1-7.984-18.57 77.064 77.064 0 0 1 14.232-78.796 85.388 85.388 0 0 1 50.158-32.63 70.614 70.614 0 0 1 11.454-1.562c48.51-4.218 91.258 31.692 95.474 80.202 0.242 2.708 0.348 5.432 0.33 8.14a85.472 85.472 0 0 1-11.628 43.39 17.36 17.36 0 0 0 6.318 23.726 17.27 17.27 0 0 0 9.65 2.308h98.58v-104.136c0-13.364 15.446-18.224 27.076-11.454a85.452 85.452 0 0 0 43.39 11.628c47.92-0.086 86.71-39.016 86.606-86.954a86.118 86.118 0 0 0-2.082-18.744z" fill="#4398D1" p-id="1106"></path><path d="M663.344 633.388c-9.58 0.07-17.304 7.898-17.234 17.478a17.24 17.24 0 0 0 2.134 8.21c24.558 41.168 11.09 94.434-30.078 118.974a86.974 86.974 0 0 1-25.462 10.154 90.1 90.1 0 0 1-37.316 0c-46.844-10.154-76.574-56.354-66.422-103.198a86.594 86.594 0 0 1 9.494-24.714c5.328-7.966 3.194-18.744-4.772-24.072a17.46 17.46 0 0 0-7.724-2.83h-104.136v97.194a19.464 19.464 0 0 1 0 6.942c-2.846 10.448-13.642 16.61-24.09 13.746a19.806 19.806 0 0 1-2.986-1.076 83.64 83.64 0 0 0-43.39-11.628c-47.452 0.278-85.686 38.964-85.408 86.416 0.278 47.452 38.964 85.686 86.416 85.408a85.858 85.858 0 0 0 44.118-12.496 17.354 17.354 0 0 1 25.686 15.272l-0.348 102.052H659.52c57.518 0 104.136-46.618 104.136-104.136V633.388h-100.312z" fill="#DE4C3C" p-id="1107"></path><path d="M381.83 633.734v0.174z" fill="#FFA83D" p-id="1108"></path><path d="M356.49 897.892c-40.092 26.276-93.878 15.064-120.156-25.01-26.276-40.074-15.064-93.878 25.01-120.156a86.708 86.708 0 0 1 50.002-14.162 83.64 83.64 0 0 1 43.39 11.628c9.858 4.512 21.486 0.174 26-9.684 0.434-0.972 0.798-1.962 1.076-2.986a18.09 18.09 0 0 0 0-4.338v-99.796h-98.58c-9.564 0.52-17.756-6.804-18.276-16.384a17.384 17.384 0 0 1 2.308-9.65 85.452 85.452 0 0 0 11.628-43.39c-0.018-48.7-39.484-88.168-88.186-88.15-2.552 0-5.086 0.104-7.62 0.33a70.584 70.584 0 0 0-11.454 1.562 85.304 85.304 0 0 0-49.29 31.414 77.05 77.05 0 0 0-14.232 78.796 77.132 77.132 0 0 0 7.984 18.57 19.794 19.794 0 0 1 0 21.348l-1.042 1.042a18.58 18.58 0 0 1-6.422 3.818l-4.496 0.694H0v277.694c0.66 53.248 40.664 97.784 93.548 104.136h288.282v-102.052c-0.07-9.58-7.914-17.286-17.494-17.218a17.428 17.428 0 0 0-7.846 1.944z" fill="#FDB62F" p-id="1109"></path><path d="M381.83 921.496v93.722h277.694c57.518 0 104.136-46.618 104.136-104.136v-197.336c-100.142 100.664-240.206 165.748-381.83 207.75z" fill="#C94536" p-id="1110"></path><path d="M34.712 987.274a105.388 105.388 0 0 0 58.836 27.944h288.282v-93.722a1895.752 1895.752 0 0 1-347.118 65.778z" fill="#FFA83D" p-id="1111"></path><path d="M624.814 373.048v17.356h98.582c9.564-0.52 17.756 6.804 18.276 16.384a17.384 17.384 0 0 1-2.308 9.65 85.452 85.452 0 0 0-11.628 43.39c0.086 47.92 38.998 86.71 86.936 86.624 47.92-0.086 86.71-38.998 86.624-86.936a86.82 86.82 0 0 0-12.15-44.136c-4.218-8.608-0.66-19.004 7.932-23.222a17.39 17.39 0 0 1 7.168-1.77h100.838V166.166c-84.178 127.046-243.506 182.932-380.27 206.882z" fill="#78A82F" p-id="1112"></path></svg>